<mxfile host="app.diagrams.net" agent="Mozilla/5.0 (Windows NT 10.0; Win64; x64) AppleWebKit/537.36 (KHTML, like Gecko) Chrome/130.0.0.0 Safari/537.36" version="24.8.4">
  <diagram name="第 1 页" id="q-8u0XZE7UXlZd95VleL">
    <mxGraphModel dx="1014" dy="514" grid="1" gridSize="10" guides="1" tooltips="1" connect="1" arrows="1" fold="1" page="1" pageScale="1" pageWidth="827" pageHeight="1169" math="0" shadow="0">
      <root>
        <mxCell id="0" />
        <mxCell id="1" parent="0" />
        <mxCell id="eB-7mOZCc41aea6fpY4W-1" value="&lt;font style=&quot;font-size: 18px;&quot;&gt;商品项目&lt;/font&gt;" style="rounded=1;whiteSpace=wrap;html=1;" vertex="1" parent="1">
          <mxGeometry x="110" y="230" width="120" height="100" as="geometry" />
        </mxCell>
        <mxCell id="eB-7mOZCc41aea6fpY4W-4" value="" style="edgeStyle=orthogonalEdgeStyle;rounded=0;orthogonalLoop=1;jettySize=auto;html=1;" edge="1" parent="1" source="eB-7mOZCc41aea6fpY4W-2" target="eB-7mOZCc41aea6fpY4W-1">
          <mxGeometry relative="1" as="geometry" />
        </mxCell>
        <mxCell id="eB-7mOZCc41aea6fpY4W-5" value="获取数据" style="edgeLabel;html=1;align=center;verticalAlign=middle;resizable=0;points=[];" vertex="1" connectable="0" parent="eB-7mOZCc41aea6fpY4W-4">
          <mxGeometry x="0.0885" relative="1" as="geometry">
            <mxPoint x="10" as="offset" />
          </mxGeometry>
        </mxCell>
        <mxCell id="eB-7mOZCc41aea6fpY4W-6" style="edgeStyle=orthogonalEdgeStyle;rounded=0;orthogonalLoop=1;jettySize=auto;html=1;entryX=0;entryY=0.5;entryDx=0;entryDy=0;" edge="1" parent="1" source="eB-7mOZCc41aea6fpY4W-2" target="eB-7mOZCc41aea6fpY4W-3">
          <mxGeometry relative="1" as="geometry" />
        </mxCell>
        <mxCell id="eB-7mOZCc41aea6fpY4W-8" value="调用工作流" style="edgeLabel;html=1;align=center;verticalAlign=middle;resizable=0;points=[];" vertex="1" connectable="0" parent="eB-7mOZCc41aea6fpY4W-6">
          <mxGeometry x="-0.05" y="1" relative="1" as="geometry">
            <mxPoint as="offset" />
          </mxGeometry>
        </mxCell>
        <mxCell id="eB-7mOZCc41aea6fpY4W-15" style="edgeStyle=orthogonalEdgeStyle;rounded=0;orthogonalLoop=1;jettySize=auto;html=1;entryX=0.5;entryY=1;entryDx=0;entryDy=0;exitX=0.5;exitY=1;exitDx=0;exitDy=0;curved=1;" edge="1" parent="1" source="eB-7mOZCc41aea6fpY4W-2" target="eB-7mOZCc41aea6fpY4W-1">
          <mxGeometry relative="1" as="geometry">
            <Array as="points">
              <mxPoint x="400" y="400" />
              <mxPoint x="170" y="400" />
            </Array>
          </mxGeometry>
        </mxCell>
        <mxCell id="eB-7mOZCc41aea6fpY4W-16" value="&lt;font style=&quot;font-size: 12px;&quot;&gt;保存图片地址&lt;/font&gt;" style="edgeLabel;html=1;align=center;verticalAlign=middle;resizable=0;points=[];" vertex="1" connectable="0" parent="eB-7mOZCc41aea6fpY4W-15">
          <mxGeometry x="0.15" y="-3" relative="1" as="geometry">
            <mxPoint x="13" as="offset" />
          </mxGeometry>
        </mxCell>
        <mxCell id="eB-7mOZCc41aea6fpY4W-2" value="&lt;font style=&quot;font-size: 18px;&quot;&gt;AIGC&lt;/font&gt;" style="rounded=1;whiteSpace=wrap;html=1;" vertex="1" parent="1">
          <mxGeometry x="340" y="230" width="120" height="100" as="geometry" />
        </mxCell>
        <mxCell id="eB-7mOZCc41aea6fpY4W-3" value="&lt;font style=&quot;font-size: 18px;&quot;&gt;ComfyUI&lt;/font&gt;" style="rounded=1;whiteSpace=wrap;html=1;" vertex="1" parent="1">
          <mxGeometry x="570" y="230" width="120" height="100" as="geometry" />
        </mxCell>
        <mxCell id="eB-7mOZCc41aea6fpY4W-9" value="" style="endArrow=classic;html=1;rounded=0;" edge="1" parent="1">
          <mxGeometry width="50" height="50" relative="1" as="geometry">
            <mxPoint x="560" y="310" as="sourcePoint" />
            <mxPoint x="470" y="310" as="targetPoint" />
          </mxGeometry>
        </mxCell>
        <mxCell id="eB-7mOZCc41aea6fpY4W-10" value="返回生图结果" style="edgeLabel;html=1;align=center;verticalAlign=middle;resizable=0;points=[];" vertex="1" connectable="0" parent="eB-7mOZCc41aea6fpY4W-9">
          <mxGeometry x="-0.0722" y="1" relative="1" as="geometry">
            <mxPoint as="offset" />
          </mxGeometry>
        </mxCell>
        <mxCell id="eB-7mOZCc41aea6fpY4W-11" value="&lt;span style=&quot;font-size: 18px;&quot;&gt;七牛云&lt;/span&gt;" style="rounded=1;whiteSpace=wrap;html=1;" vertex="1" parent="1">
          <mxGeometry x="470" y="420" width="120" height="100" as="geometry" />
        </mxCell>
        <mxCell id="eB-7mOZCc41aea6fpY4W-13" value="" style="endArrow=classic;html=1;rounded=0;" edge="1" parent="1">
          <mxGeometry width="50" height="50" relative="1" as="geometry">
            <mxPoint x="460" y="340" as="sourcePoint" />
            <mxPoint x="510" y="410" as="targetPoint" />
          </mxGeometry>
        </mxCell>
        <mxCell id="eB-7mOZCc41aea6fpY4W-14" value="" style="endArrow=classic;html=1;rounded=0;" edge="1" parent="1">
          <mxGeometry width="50" height="50" relative="1" as="geometry">
            <mxPoint x="490" y="410" as="sourcePoint" />
            <mxPoint x="440" y="340" as="targetPoint" />
          </mxGeometry>
        </mxCell>
        <mxCell id="eB-7mOZCc41aea6fpY4W-17" value="图片上传七牛云" style="text;html=1;align=center;verticalAlign=middle;whiteSpace=wrap;rounded=0;" vertex="1" parent="1">
          <mxGeometry x="490" y="360" width="60" height="30" as="geometry" />
        </mxCell>
      </root>
    </mxGraphModel>
  </diagram>
</mxfile>
